<?xml version="1.0" encoding="UTF-8" standalone="no"?>
<!DOCTYPE svg PUBLIC "-//W3C//DTD SVG 1.1//EN"
 "http://www.w3.org/Graphics/SVG/1.1/DTD/svg11.dtd">
<!-- Generated by graphviz version 2.47.0 (0)
 -->
<!-- Pages: 1 -->
<svg width="179pt" height="116pt"
 viewBox="0.00 0.00 179.00 115.74" xmlns="http://www.w3.org/2000/svg" xmlns:xlink="http://www.w3.org/1999/xlink">
<g id="graph0" class="graph" transform="scale(1 1) rotate(0) translate(4 111.74)">
<polygon fill="white" stroke="transparent" points="-4,4 -4,-111.74 175,-111.74 175,4 -4,4"/>
<!-- x -->
<g id="node1" class="node">
<title>x</title>
<polygon fill="lightgray" stroke="black" points="20,-107.74 0,-107.74 0,-89.74 20,-89.74 20,-107.74"/>
<text text-anchor="middle" x="10" y="-96.54" font-family="Times New Roman,serif" font-size="9.00">x</text>
</g>
<!-- action -->
<g id="node5" class="node">
<title>action</title>
<ellipse fill="lightblue" stroke="black" cx="80" cy="-26.87" rx="26.74" ry="26.74"/>
<text text-anchor="middle" x="80" y="-24.67" font-family="Times New Roman,serif" font-size="9.00">action</text>
</g>
<!-- x&#45;&gt;action -->
<g id="edge1" class="edge">
<title>x&#45;&gt;action</title>
<path fill="none" stroke="green" stroke-width="0.13" d="M18.03,-89.73C26.8,-80.98 41.29,-66.51 54.05,-53.77"/>
<polygon fill="green" stroke="green" stroke-width="0.13" points="56.71,-56.06 61.32,-46.52 51.77,-51.11 56.71,-56.06"/>
</g>
<!-- dot_x -->
<g id="node2" class="node">
<title>dot_x</title>
<polygon fill="lightgray" stroke="black" points="75.5,-107.74 38.5,-107.74 38.5,-89.74 75.5,-89.74 75.5,-107.74"/>
<text text-anchor="middle" x="57" y="-96.54" font-family="Times New Roman,serif" font-size="9.00">dot_x</text>
</g>
<!-- dot_x&#45;&gt;action -->
<g id="edge2" class="edge">
<title>dot_x&#45;&gt;action</title>
<path fill="none" stroke="green" stroke-width="0.21" d="M59.64,-89.73C61.89,-82.88 65.3,-72.54 68.68,-62.26"/>
<polygon fill="green" stroke="green" stroke-width="0.21" points="72.08,-63.13 71.88,-52.53 65.43,-60.94 72.08,-63.13"/>
</g>
<!-- θ -->
<g id="node3" class="node">
<title>θ</title>
<polygon fill="lightgray" stroke="black" points="114.5,-107.74 93.5,-107.74 93.5,-89.74 114.5,-89.74 114.5,-107.74"/>
<text text-anchor="middle" x="104" y="-96.54" font-family="Times New Roman,serif" font-size="9.00">θ</text>
</g>
<!-- θ&#45;&gt;action -->
<g id="edge3" class="edge">
<title>θ&#45;&gt;action</title>
<path fill="none" stroke="green" stroke-width="0.29" d="M101.25,-89.73C98.9,-82.88 95.34,-72.54 91.81,-62.26"/>
<polygon fill="green" stroke="green" stroke-width="0.29" points="95.03,-60.85 88.47,-52.53 88.41,-63.13 95.03,-60.85"/>
</g>
<!-- dot_θ -->
<g id="node4" class="node">
<title>dot_θ</title>
<polygon fill="lightgray" stroke="black" points="171,-107.74 133,-107.74 133,-89.74 171,-89.74 171,-107.74"/>
<text text-anchor="middle" x="152" y="-96.54" font-family="Times New Roman,serif" font-size="9.00">dot_θ</text>
</g>
<!-- dot_θ&#45;&gt;action -->
<g id="edge4" class="edge">
<title>dot_θ&#45;&gt;action</title>
<path fill="none" stroke="green" stroke-width="0.57" d="M143.74,-89.73C134.66,-80.92 119.61,-66.31 106.42,-53.51"/>
<polygon fill="green" stroke="green" stroke-width="0.57" points="108.53,-50.68 98.92,-46.23 103.66,-55.71 108.53,-50.68"/>
</g>
</g>
</svg>
