<?xml version="1.0" encoding="UTF-8" standalone="no"?>
<!DOCTYPE svg PUBLIC "-//W3C//DTD SVG 1.1//EN"
 "http://www.w3.org/Graphics/SVG/1.1/DTD/svg11.dtd">
<!-- Generated by graphviz version 2.38.0 (20140413.2041)
 -->
<!-- Title: %3 Pages: 1 -->
<svg width="311pt" height="116pt"
 viewBox="0.00 0.00 310.50 115.74" xmlns="http://www.w3.org/2000/svg" xmlns:xlink="http://www.w3.org/1999/xlink">
<g id="graph0" class="graph" transform="scale(1 1) rotate(0) translate(4 111.74)">
<title>%3</title>
<polygon fill="white" stroke="none" points="-4,4 -4,-111.74 306.5,-111.74 306.5,4 -4,4"/>
<!-- x -->
<g id="node1" class="node"><title>x</title>
<polygon fill="lightgray" stroke="black" points="20,-107.74 0,-107.74 0,-89.7401 20,-89.7401 20,-107.74"/>
<text text-anchor="middle" x="10" y="-96.5401" font-family="Times New Roman,serif" font-size="9.00">x</text>
</g>
<!-- action -->
<g id="node7" class="node"><title>action</title>
<ellipse fill="lightblue" stroke="black" cx="110" cy="-26.8701" rx="26.7407" ry="26.7407"/>
<text text-anchor="middle" x="110" y="-24.6701" font-family="Times New Roman,serif" font-size="9.00">action</text>
</g>
<!-- x&#45;&gt;action -->
<g id="edge5" class="edge"><title>x&#45;&gt;action</title>
<path fill="none" stroke="red" stroke-width="0.261045" d="M20.3251,-90.526C34.2977,-80.7633 59.807,-62.9399 80.056,-48.792"/>
<polygon fill="red" stroke="red" stroke-width="0.261045" points="82.1704,-51.5844 88.3631,-42.9878 78.1611,-45.8462 82.1704,-51.5844"/>
</g>
<!-- dot_x -->
<g id="node2" class="node"><title>dot_x</title>
<polygon fill="lightgray" stroke="black" points="302.5,-107.74 265.5,-107.74 265.5,-89.7401 302.5,-89.7401 302.5,-107.74"/>
<text text-anchor="middle" x="284" y="-96.5401" font-family="Times New Roman,serif" font-size="9.00">dot_x</text>
</g>
<!-- θ_1 -->
<g id="node3" class="node"><title>θ_1</title>
<polygon fill="lightgray" stroke="black" points="68,-107.74 38,-107.74 38,-89.7401 68,-89.7401 68,-107.74"/>
<text text-anchor="middle" x="53" y="-96.5401" font-family="Times New Roman,serif" font-size="9.00">θ_1</text>
</g>
<!-- θ_1&#45;&gt;action -->
<g id="edge4" class="edge"><title>θ_1&#45;&gt;action</title>
<path fill="none" stroke="red" stroke-width="1.17406" d="M59.5386,-89.7251C66.2552,-81.492 77.1009,-68.1975 87.0193,-56.0396"/>
<polygon fill="red" stroke="red" stroke-width="1.17406" points="89.7411,-58.2401 93.3504,-48.279 84.317,-53.8151 89.7411,-58.2401"/>
</g>
<!-- dot_θ_1 -->
<g id="node4" class="node"><title>dot_θ_1</title>
<polygon fill="lightgray" stroke="black" points="133.5,-107.74 86.5,-107.74 86.5,-89.7401 133.5,-89.7401 133.5,-107.74"/>
<text text-anchor="middle" x="110" y="-96.5401" font-family="Times New Roman,serif" font-size="9.00">dot_θ_1</text>
</g>
<!-- dot_θ_1&#45;&gt;action -->
<g id="edge2" class="edge"><title>dot_θ_1&#45;&gt;action</title>
<path fill="none" stroke="red" stroke-width="1.13692" d="M110,-89.7251C110,-83.2338 110,-73.5962 110,-63.8501"/>
<polygon fill="red" stroke="red" stroke-width="1.13692" points="113.5,-63.7816 110,-53.7816 106.5,-63.7816 113.5,-63.7816"/>
</g>
<!-- θ_2 -->
<g id="node5" class="node"><title>θ_2</title>
<polygon fill="lightgray" stroke="black" points="182,-107.74 152,-107.74 152,-89.7401 182,-89.7401 182,-107.74"/>
<text text-anchor="middle" x="167" y="-96.5401" font-family="Times New Roman,serif" font-size="9.00">θ_2</text>
</g>
<!-- θ_2&#45;&gt;action -->
<g id="edge1" class="edge"><title>θ_2&#45;&gt;action</title>
<path fill="none" stroke="green" stroke-width="0.87817" d="M160.461,-89.7251C153.745,-81.492 142.899,-68.1975 132.981,-56.0396"/>
<polygon fill="green" stroke="green" stroke-width="0.87817" points="135.683,-53.8151 126.65,-48.279 130.259,-58.2401 135.683,-53.8151"/>
</g>
<!-- dot_θ_2 -->
<g id="node6" class="node"><title>dot_θ_2</title>
<polygon fill="lightgray" stroke="black" points="247.5,-107.74 200.5,-107.74 200.5,-89.7401 247.5,-89.7401 247.5,-107.74"/>
<text text-anchor="middle" x="224" y="-96.5401" font-family="Times New Roman,serif" font-size="9.00">dot_θ_2</text>
</g>
<!-- dot_θ_2&#45;&gt;action -->
<g id="edge3" class="edge"><title>dot_θ_2&#45;&gt;action</title>
<path fill="none" stroke="green" stroke-width="0.428164" d="M210.923,-89.7251C194.091,-79.4091 164.294,-61.1467 141.426,-47.1307"/>
<polygon fill="green" stroke="green" stroke-width="0.428164" points="143.087,-44.0436 132.732,-41.8021 139.429,-50.0119 143.087,-44.0436"/>
</g>
</g>
</svg>
