<?xml version="1.0" encoding="UTF-8" standalone="no"?>
<!DOCTYPE svg PUBLIC "-//W3C//DTD SVG 1.1//EN"
 "http://www.w3.org/Graphics/SVG/1.1/DTD/svg11.dtd">
<!-- Generated by graphviz version 2.47.0 (0)
 -->
<!-- Pages: 1 -->
<svg width="1711pt" height="291pt"
 viewBox="0.00 0.00 1710.65 290.98" xmlns="http://www.w3.org/2000/svg" xmlns:xlink="http://www.w3.org/1999/xlink">
<g id="graph0" class="graph" transform="scale(1 1) rotate(0) translate(4 286.98)">
<polygon fill="white" stroke="transparent" points="-4,4 -4,-286.98 1706.65,-286.98 1706.65,4 -4,4"/>
<!-- x -->
<g id="node1" class="node">
<title>x</title>
<polygon fill="lightgray" stroke="black" points="805.43,-282.98 785.43,-282.98 785.43,-264.98 805.43,-264.98 805.43,-282.98"/>
<text text-anchor="middle" x="795.43" y="-271.78" font-family="Times New Roman,serif" font-size="9.00">x</text>
</g>
<!-- output -->
<g id="node2" class="node">
<title>output</title>
<ellipse fill="lightblue" stroke="black" cx="946.43" cy="-28.99" rx="28.98" ry="28.98"/>
<text text-anchor="middle" x="946.43" y="-26.79" font-family="Times New Roman,serif" font-size="9.00">output</text>
</g>
<!-- x&#45;&gt;output -->
<g id="edge61" class="edge">
<title>x&#45;&gt;output</title>
<path fill="none" stroke="red" stroke-width="0.14" d="M785.32,-272.79C696.95,-271.06 58.76,-257.59 31.43,-228.98 -10.01,-185.59 -10.49,-137.86 30.43,-93.98 90.97,-29.07 739.51,-28.67 907.09,-29.66"/>
<polygon fill="red" stroke="red" stroke-width="0.14" points="907.18,-33.16 917.2,-29.73 907.22,-26.16 907.18,-33.16"/>
</g>
<!-- 2186 -->
<g id="node3" class="node">
<title>2186</title>
<ellipse fill="white" stroke="black" cx="65.43" cy="-204.23" rx="25" ry="25"/>
<text text-anchor="middle" x="65.43" y="-202.03" font-family="Times New Roman,serif" font-size="9.00">2186</text>
</g>
<!-- x&#45;&gt;2186 -->
<g id="edge62" class="edge">
<title>x&#45;&gt;2186</title>
<path fill="none" stroke="green" stroke-width="0.19" d="M785.41,-272.86C726.3,-272.05 417.2,-266.15 168.43,-228.98 145.09,-225.49 119.22,-219.51 99.24,-214.43"/>
<polygon fill="green" stroke="green" stroke-width="0.19" points="99.93,-210.99 89.37,-211.87 98.17,-217.77 99.93,-210.99"/>
</g>
<!-- 931 -->
<g id="node4" class="node">
<title>931</title>
<ellipse fill="white" stroke="black" cx="120.43" cy="-118.73" rx="21.43" ry="21.43"/>
<text text-anchor="middle" x="120.43" y="-116.53" font-family="Times New Roman,serif" font-size="9.00">931</text>
</g>
<!-- x&#45;&gt;931 -->
<g id="edge1" class="edge">
<title>x&#45;&gt;931</title>
<path fill="none" stroke="green" stroke-width="0.3" d="M785.41,-272.89C721.18,-272.18 366.73,-266.62 266.43,-228.98 252.72,-223.83 182.58,-169.07 144.73,-139.09"/>
<polygon fill="green" stroke="green" stroke-width="0.3" points="146.74,-136.22 136.73,-132.74 142.39,-141.7 146.74,-136.22"/>
</g>
<!-- 932 -->
<g id="node5" class="node">
<title>932</title>
<ellipse fill="white" stroke="black" cx="180.43" cy="-118.73" rx="21.43" ry="21.43"/>
<text text-anchor="middle" x="180.43" y="-116.53" font-family="Times New Roman,serif" font-size="9.00">932</text>
</g>
<!-- x&#45;&gt;932 -->
<g id="edge2" class="edge">
<title>x&#45;&gt;932</title>
<path fill="none" stroke="green" stroke-width="0.27" d="M785.23,-272.91C724.27,-272.37 407.89,-267.73 320.43,-228.98 290.67,-215.79 292.22,-199.35 266.43,-179.48 243,-161.42 234.51,-160.68 210.43,-143.48 208.54,-142.13 206.61,-140.71 204.68,-139.26"/>
<polygon fill="green" stroke="green" stroke-width="0.27" points="206.45,-136.2 196.4,-132.85 202.17,-141.73 206.45,-136.2"/>
</g>
<!-- 933 -->
<g id="node6" class="node">
<title>933</title>
<ellipse fill="white" stroke="black" cx="240.43" cy="-118.73" rx="21.43" ry="21.43"/>
<text text-anchor="middle" x="240.43" y="-116.53" font-family="Times New Roman,serif" font-size="9.00">933</text>
</g>
<!-- x&#45;&gt;933 -->
<g id="edge3" class="edge">
<title>x&#45;&gt;933</title>
<path fill="none" stroke="green" stroke-width="0.17" d="M785.07,-272.89C727.13,-272.27 443.33,-267.28 366.43,-228.98 339.55,-215.59 342.95,-199.35 320.43,-179.48 299.9,-161.36 292.28,-159.98 270.43,-143.48 268.58,-142.08 266.68,-140.62 264.77,-139.15"/>
<polygon fill="green" stroke="green" stroke-width="0.17" points="266.55,-136.1 256.52,-132.69 262.23,-141.61 266.55,-136.1"/>
</g>
<!-- 934 -->
<g id="node7" class="node">
<title>934</title>
<ellipse fill="white" stroke="black" cx="300.43" cy="-118.73" rx="21.43" ry="21.43"/>
<text text-anchor="middle" x="300.43" y="-116.53" font-family="Times New Roman,serif" font-size="9.00">934</text>
</g>
<!-- x&#45;&gt;934 -->
<g id="edge4" class="edge">
<title>x&#45;&gt;934</title>
<path fill="none" stroke="green" stroke-width="0.3" d="M785.35,-272.82C731.4,-271.85 476.59,-265.35 408.43,-228.98 382.98,-215.39 386.5,-200.21 366.43,-179.48 352.99,-165.6 336.93,-151.02 324.02,-139.74"/>
<polygon fill="green" stroke="green" stroke-width="0.3" points="326.29,-137.08 316.44,-133.18 321.71,-142.37 326.29,-137.08"/>
</g>
<!-- 935 -->
<g id="node8" class="node">
<title>935</title>
<ellipse fill="white" stroke="black" cx="360.43" cy="-118.73" rx="21.43" ry="21.43"/>
<text text-anchor="middle" x="360.43" y="-116.53" font-family="Times New Roman,serif" font-size="9.00">935</text>
</g>
<!-- x&#45;&gt;935 -->
<g id="edge5" class="edge">
<title>x&#45;&gt;935</title>
<path fill="none" stroke="green" stroke-width="0.19" d="M785.13,-272.68C734.3,-271.04 510.3,-262.02 450.43,-228.98 448.05,-227.66 405.86,-175.84 380.1,-144.06"/>
<polygon fill="green" stroke="green" stroke-width="0.19" points="382.64,-141.63 373.63,-136.06 377.2,-146.04 382.64,-141.63"/>
</g>
<!-- 936 -->
<g id="node9" class="node">
<title>936</title>
<ellipse fill="white" stroke="black" cx="420.43" cy="-118.73" rx="21.43" ry="21.43"/>
<text text-anchor="middle" x="420.43" y="-116.53" font-family="Times New Roman,serif" font-size="9.00">936</text>
</g>
<!-- x&#45;&gt;936 -->
<g id="edge6" class="edge">
<title>x&#45;&gt;936</title>
<path fill="none" stroke="red" stroke-width="0.18" d="M785.4,-272.61C738.72,-270.73 542.9,-261.05 492.43,-228.98 476.52,-218.86 450.96,-175.92 434.96,-146.98"/>
<polygon fill="red" stroke="red" stroke-width="0.18" points="438,-145.23 430.13,-138.14 431.85,-148.59 438,-145.23"/>
</g>
<!-- 937 -->
<g id="node10" class="node">
<title>937</title>
<ellipse fill="white" stroke="black" cx="522.43" cy="-204.23" rx="21.43" ry="21.43"/>
<text text-anchor="middle" x="522.43" y="-202.03" font-family="Times New Roman,serif" font-size="9.00">937</text>
</g>
<!-- x&#45;&gt;937 -->
<g id="edge7" class="edge">
<title>x&#45;&gt;937</title>
<path fill="none" stroke="red" stroke-width="0.15" d="M785.43,-271.9C753.62,-268.3 652.24,-255.35 572.43,-228.98 565.03,-226.53 557.3,-223.25 550.19,-219.91"/>
<polygon fill="red" stroke="red" stroke-width="0.15" points="551.49,-216.65 540.97,-215.39 548.41,-222.94 551.49,-216.65"/>
</g>
<!-- 938 -->
<g id="node11" class="node">
<title>938</title>
<ellipse fill="white" stroke="black" cx="586.43" cy="-118.73" rx="21.43" ry="21.43"/>
<text text-anchor="middle" x="586.43" y="-116.53" font-family="Times New Roman,serif" font-size="9.00">938</text>
</g>
<!-- x&#45;&gt;938 -->
<g id="edge8" class="edge">
<title>x&#45;&gt;938</title>
<path fill="none" stroke="red" stroke-width="0.16" d="M785.17,-271.97C760.98,-269.13 699.42,-259.21 659.43,-228.98 631.48,-207.85 610.79,-172.74 598.71,-148.04"/>
<polygon fill="red" stroke="red" stroke-width="0.16" points="601.79,-146.36 594.36,-138.81 595.46,-149.35 601.79,-146.36"/>
</g>
<!-- 939 -->
<g id="node12" class="node">
<title>939</title>
<ellipse fill="white" stroke="black" cx="646.43" cy="-118.73" rx="21.43" ry="21.43"/>
<text text-anchor="middle" x="646.43" y="-116.53" font-family="Times New Roman,serif" font-size="9.00">939</text>
</g>
<!-- x&#45;&gt;939 -->
<g id="edge9" class="edge">
<title>x&#45;&gt;939</title>
<path fill="none" stroke="red" stroke-width="0.24" d="M785.27,-271.05C765.51,-266.8 721.54,-254.9 695.43,-228.98 673.36,-207.06 660.35,-173.45 653.35,-149.29"/>
<polygon fill="red" stroke="red" stroke-width="0.24" points="656.71,-148.31 650.71,-139.58 649.96,-150.15 656.71,-148.31"/>
</g>
<!-- 940 -->
<g id="node13" class="node">
<title>940</title>
<ellipse fill="white" stroke="black" cx="706.43" cy="-118.73" rx="21.43" ry="21.43"/>
<text text-anchor="middle" x="706.43" y="-116.53" font-family="Times New Roman,serif" font-size="9.00">940</text>
</g>
<!-- x&#45;&gt;940 -->
<g id="edge10" class="edge">
<title>x&#45;&gt;940</title>
<path fill="none" stroke="red" stroke-width="0.12" d="M785.2,-270.86C767.16,-266.53 730.03,-254.8 713.43,-228.98 698.38,-205.55 698.26,-173.14 700.92,-149.71"/>
<polygon fill="red" stroke="red" stroke-width="0.12" points="704.41,-150.03 702.29,-139.65 697.47,-149.08 704.41,-150.03"/>
</g>
<!-- 941 -->
<g id="node14" class="node">
<title>941</title>
<ellipse fill="white" stroke="black" cx="766.43" cy="-118.73" rx="21.43" ry="21.43"/>
<text text-anchor="middle" x="766.43" y="-116.53" font-family="Times New Roman,serif" font-size="9.00">941</text>
</g>
<!-- x&#45;&gt;941 -->
<g id="edge11" class="edge">
<title>x&#45;&gt;941</title>
<path fill="none" stroke="red" stroke-width="0.3" d="M785.35,-270.19C769.09,-265.09 737.55,-252.54 724.43,-228.98 713.73,-209.76 717.8,-200.45 724.43,-179.48 728.72,-165.93 737.3,-152.8 745.59,-142.31"/>
<polygon fill="red" stroke="red" stroke-width="0.3" points="748.38,-144.43 752.09,-134.51 743,-139.95 748.38,-144.43"/>
</g>
<!-- 942 -->
<g id="node15" class="node">
<title>942</title>
<ellipse fill="white" stroke="black" cx="826.43" cy="-118.73" rx="21.43" ry="21.43"/>
<text text-anchor="middle" x="826.43" y="-116.53" font-family="Times New Roman,serif" font-size="9.00">942</text>
</g>
<!-- x&#45;&gt;942 -->
<g id="edge12" class="edge">
<title>x&#45;&gt;942</title>
<path fill="none" stroke="red" stroke-width="0.15" d="M786.72,-264.86C778.66,-256.7 767.2,-243.29 762.43,-228.98 755.48,-208.11 753.67,-199.66 762.43,-179.48 766.71,-169.63 785.78,-152.44 802,-139.02"/>
<polygon fill="red" stroke="red" stroke-width="0.15" points="804.58,-141.43 810.13,-132.4 800.16,-136 804.58,-141.43"/>
</g>
<!-- 943 -->
<g id="node16" class="node">
<title>943</title>
<ellipse fill="white" stroke="black" cx="886.43" cy="-118.73" rx="21.43" ry="21.43"/>
<text text-anchor="middle" x="886.43" y="-116.53" font-family="Times New Roman,serif" font-size="9.00">943</text>
</g>
<!-- x&#45;&gt;943 -->
<g id="edge13" class="edge">
<title>x&#45;&gt;943</title>
<path fill="none" stroke="red" stroke-width="0.11" d="M793.54,-264.78C790.06,-247.61 784.34,-207.17 800.43,-179.48 815.3,-153.9 832.36,-160.68 856.43,-143.48 858.32,-142.13 860.25,-140.71 862.18,-139.26"/>
<polygon fill="red" stroke="red" stroke-width="0.11" points="864.7,-141.73 870.46,-132.85 860.41,-136.2 864.7,-141.73"/>
</g>
<!-- 944 -->
<g id="node17" class="node">
<title>944</title>
<ellipse fill="white" stroke="black" cx="946.43" cy="-118.73" rx="21.43" ry="21.43"/>
<text text-anchor="middle" x="946.43" y="-116.53" font-family="Times New Roman,serif" font-size="9.00">944</text>
</g>
<!-- x&#45;&gt;944 -->
<g id="edge14" class="edge">
<title>x&#45;&gt;944</title>
<path fill="none" stroke="green" stroke-width="0.11" d="M796.62,-264.85C799.62,-247.08 809.06,-204.42 833.43,-179.48 861.53,-150.72 881.93,-164.13 916.43,-143.48 918.42,-142.29 920.43,-140.98 922.41,-139.61"/>
<polygon fill="green" stroke="green" stroke-width="0.11" points="924.87,-142.14 930.8,-133.36 920.69,-136.53 924.87,-142.14"/>
</g>
<!-- 945 -->
<g id="node18" class="node">
<title>945</title>
<ellipse fill="white" stroke="black" cx="863.43" cy="-204.23" rx="21.43" ry="21.43"/>
<text text-anchor="middle" x="863.43" y="-202.03" font-family="Times New Roman,serif" font-size="9.00">945</text>
</g>
<!-- x&#45;&gt;945 -->
<g id="edge15" class="edge">
<title>x&#45;&gt;945</title>
<path fill="none" stroke="red" stroke-width="0.3" d="M803.5,-264.94C812.79,-255.68 828.45,-240.08 841.43,-227.15"/>
<polygon fill="red" stroke="red" stroke-width="0.3" points="844.08,-229.45 848.7,-219.91 839.14,-224.49 844.08,-229.45"/>
</g>
<!-- 946 -->
<g id="node19" class="node">
<title>946</title>
<ellipse fill="white" stroke="black" cx="923.43" cy="-204.23" rx="21.43" ry="21.43"/>
<text text-anchor="middle" x="923.43" y="-202.03" font-family="Times New Roman,serif" font-size="9.00">946</text>
</g>
<!-- x&#45;&gt;946 -->
<g id="edge16" class="edge">
<title>x&#45;&gt;946</title>
<path fill="none" stroke="red" stroke-width="0.11" d="M805.58,-269.38C823.83,-262.7 863.15,-247.37 893.43,-228.98 895.42,-227.77 897.42,-226.45 899.39,-225.08"/>
<polygon fill="red" stroke="red" stroke-width="0.11" points="901.86,-227.6 907.77,-218.81 897.67,-222 901.86,-227.6"/>
</g>
<!-- 947 -->
<g id="node20" class="node">
<title>947</title>
<ellipse fill="white" stroke="black" cx="983.43" cy="-204.23" rx="21.43" ry="21.43"/>
<text text-anchor="middle" x="983.43" y="-202.03" font-family="Times New Roman,serif" font-size="9.00">947</text>
</g>
<!-- x&#45;&gt;947 -->
<g id="edge17" class="edge">
<title>x&#45;&gt;947</title>
<path fill="none" stroke="green" stroke-width="0.18" d="M805.55,-271.59C831.39,-267.74 901.41,-255.45 953.43,-228.98 955.5,-227.93 957.56,-226.72 959.58,-225.42"/>
<polygon fill="green" stroke="green" stroke-width="0.18" points="961.99,-228 968.05,-219.31 957.89,-222.32 961.99,-228"/>
</g>
<!-- 948 -->
<g id="node21" class="node">
<title>948</title>
<ellipse fill="white" stroke="black" cx="1043.43" cy="-204.23" rx="21.43" ry="21.43"/>
<text text-anchor="middle" x="1043.43" y="-202.03" font-family="Times New Roman,serif" font-size="9.00">948</text>
</g>
<!-- x&#45;&gt;948 -->
<g id="edge18" class="edge">
<title>x&#45;&gt;948</title>
<path fill="none" stroke="red" stroke-width="0.27" d="M805.5,-272.6C837.45,-271.07 938.83,-263.59 1013.43,-228.98 1015.75,-227.9 1018.05,-226.61 1020.29,-225.2"/>
<polygon fill="red" stroke="red" stroke-width="0.27" points="1022.4,-227.99 1028.48,-219.31 1018.32,-222.3 1022.4,-227.99"/>
</g>
<!-- 949 -->
<g id="node22" class="node">
<title>949</title>
<ellipse fill="white" stroke="black" cx="1103.43" cy="-204.23" rx="21.43" ry="21.43"/>
<text text-anchor="middle" x="1103.43" y="-202.03" font-family="Times New Roman,serif" font-size="9.00">949</text>
</g>
<!-- x&#45;&gt;949 -->
<g id="edge19" class="edge">
<title>x&#45;&gt;949</title>
<path fill="none" stroke="green" stroke-width="0.3" d="M805.54,-273.19C842.88,-273.59 975.88,-271.76 1073.43,-228.98 1075.77,-227.95 1078.09,-226.7 1080.34,-225.3"/>
<polygon fill="green" stroke="green" stroke-width="0.3" points="1082.43,-228.11 1088.55,-219.45 1078.37,-222.41 1082.43,-228.11"/>
</g>
<!-- 950 -->
<g id="node23" class="node">
<title>950</title>
<ellipse fill="white" stroke="black" cx="1163.43" cy="-204.23" rx="21.43" ry="21.43"/>
<text text-anchor="middle" x="1163.43" y="-202.03" font-family="Times New Roman,serif" font-size="9.00">950</text>
</g>
<!-- x&#45;&gt;950 -->
<g id="edge20" class="edge">
<title>x&#45;&gt;950</title>
<path fill="none" stroke="green" stroke-width="0.21" d="M805.73,-272.38C855.57,-269.37 1071.83,-254.99 1133.43,-228.98 1135.79,-227.98 1138.11,-226.75 1140.37,-225.37"/>
<polygon fill="green" stroke="green" stroke-width="0.21" points="1142.45,-228.19 1148.59,-219.55 1138.4,-222.47 1142.45,-228.19"/>
</g>
<!-- 951 -->
<g id="node24" class="node">
<title>951</title>
<ellipse fill="white" stroke="black" cx="1223.43" cy="-204.23" rx="21.43" ry="21.43"/>
<text text-anchor="middle" x="1223.43" y="-202.03" font-family="Times New Roman,serif" font-size="9.00">951</text>
</g>
<!-- x&#45;&gt;951 -->
<g id="edge21" class="edge">
<title>x&#45;&gt;951</title>
<path fill="none" stroke="green" stroke-width="0.12" d="M805.68,-272.61C860.56,-270.52 1119.97,-259.16 1193.43,-228.98 1195.8,-228.01 1198.13,-226.79 1200.39,-225.42"/>
<polygon fill="green" stroke="green" stroke-width="0.12" points="1202.46,-228.24 1208.62,-219.62 1198.43,-222.52 1202.46,-228.24"/>
</g>
<!-- 952 -->
<g id="node25" class="node">
<title>952</title>
<ellipse fill="white" stroke="black" cx="1283.43" cy="-204.23" rx="21.43" ry="21.43"/>
<text text-anchor="middle" x="1283.43" y="-202.03" font-family="Times New Roman,serif" font-size="9.00">952</text>
</g>
<!-- x&#45;&gt;952 -->
<g id="edge22" class="edge">
<title>x&#45;&gt;952</title>
<path fill="none" stroke="green" stroke-width="0.29" d="M805.62,-272.78C865.12,-271.5 1168.03,-263.36 1253.43,-228.98 1255.81,-228.02 1258.14,-226.82 1260.4,-225.46"/>
<polygon fill="green" stroke="green" stroke-width="0.29" points="1262.47,-228.28 1268.64,-219.67 1258.44,-222.56 1262.47,-228.28"/>
</g>
<!-- 953 -->
<g id="node26" class="node">
<title>953</title>
<ellipse fill="white" stroke="black" cx="1343.43" cy="-204.23" rx="21.43" ry="21.43"/>
<text text-anchor="middle" x="1343.43" y="-202.03" font-family="Times New Roman,serif" font-size="9.00">953</text>
</g>
<!-- x&#45;&gt;953 -->
<g id="edge23" class="edge">
<title>x&#45;&gt;953</title>
<path fill="none" stroke="red" stroke-width="0.3" d="M805.67,-272.91C869.75,-272.34 1216.1,-267.54 1313.43,-228.98 1315.81,-228.04 1318.15,-226.84 1320.41,-225.49"/>
<polygon fill="red" stroke="red" stroke-width="0.3" points="1322.48,-228.32 1328.65,-219.71 1318.46,-222.59 1322.48,-228.32"/>
</g>
<!-- 954 -->
<g id="node27" class="node">
<title>954</title>
<ellipse fill="white" stroke="black" cx="1403.43" cy="-204.23" rx="21.43" ry="21.43"/>
<text text-anchor="middle" x="1403.43" y="-202.03" font-family="Times New Roman,serif" font-size="9.00">954</text>
</g>
<!-- x&#45;&gt;954 -->
<g id="edge24" class="edge">
<title>x&#45;&gt;954</title>
<path fill="none" stroke="green" stroke-width="0.3" d="M805.51,-273.01C873.33,-273.11 1264.01,-271.77 1373.43,-228.98 1375.81,-228.05 1378.16,-226.86 1380.42,-225.51"/>
<polygon fill="green" stroke="green" stroke-width="0.3" points="1382.48,-228.34 1388.66,-219.74 1378.47,-222.61 1382.48,-228.34"/>
</g>
<!-- 955 -->
<g id="node28" class="node">
<title>955</title>
<ellipse fill="white" stroke="black" cx="1463.43" cy="-204.23" rx="21.43" ry="21.43"/>
<text text-anchor="middle" x="1463.43" y="-202.03" font-family="Times New Roman,serif" font-size="9.00">955</text>
</g>
<!-- x&#45;&gt;955 -->
<g id="edge25" class="edge">
<title>x&#45;&gt;955</title>
<path fill="none" stroke="green" stroke-width="0.24" d="M805.61,-273.09C877.7,-273.79 1312.03,-275.96 1433.43,-228.98 1435.82,-228.05 1438.16,-226.87 1440.43,-225.53"/>
<polygon fill="green" stroke="green" stroke-width="0.24" points="1442.49,-228.36 1448.67,-219.76 1438.47,-222.63 1442.49,-228.36"/>
</g>
<!-- 956 -->
<g id="node29" class="node">
<title>956</title>
<ellipse fill="white" stroke="black" cx="1523.43" cy="-204.23" rx="21.43" ry="21.43"/>
<text text-anchor="middle" x="1523.43" y="-202.03" font-family="Times New Roman,serif" font-size="9.00">956</text>
</g>
<!-- x&#45;&gt;956 -->
<g id="edge26" class="edge">
<title>x&#45;&gt;956</title>
<path fill="none" stroke="red" stroke-width="0.3" d="M805.54,-272.71C886.37,-270.48 1426.33,-254.72 1493.43,-228.98 1495.82,-228.06 1498.17,-226.88 1500.43,-225.54"/>
<polygon fill="red" stroke="red" stroke-width="0.3" points="1502.49,-228.38 1508.68,-219.78 1498.48,-222.64 1502.49,-228.38"/>
</g>
<!-- 957 -->
<g id="node30" class="node">
<title>957</title>
<ellipse fill="white" stroke="black" cx="1583.43" cy="-204.23" rx="21.43" ry="21.43"/>
<text text-anchor="middle" x="1583.43" y="-202.03" font-family="Times New Roman,serif" font-size="9.00">957</text>
</g>
<!-- x&#45;&gt;957 -->
<g id="edge27" class="edge">
<title>x&#45;&gt;957</title>
<path fill="none" stroke="green" stroke-width="0.3" d="M805.59,-272.76C890.46,-270.87 1480.29,-256.83 1553.43,-228.98 1555.82,-228.07 1558.17,-226.89 1560.44,-225.56"/>
<polygon fill="green" stroke="green" stroke-width="0.3" points="1562.49,-228.39 1568.69,-219.8 1558.48,-222.65 1562.49,-228.39"/>
</g>
<!-- 958 -->
<g id="node31" class="node">
<title>958</title>
<ellipse fill="white" stroke="black" cx="1624.43" cy="-118.73" rx="21.43" ry="21.43"/>
<text text-anchor="middle" x="1624.43" y="-116.53" font-family="Times New Roman,serif" font-size="9.00">958</text>
</g>
<!-- x&#45;&gt;958 -->
<g id="edge28" class="edge">
<title>x&#45;&gt;958</title>
<path fill="none" stroke="green" stroke-width="0.16" d="M805.66,-272.8C897.82,-271.2 1582.73,-258.28 1613.43,-228.98 1634.31,-209.05 1634.34,-174.5 1630.88,-149.58"/>
<polygon fill="green" stroke="green" stroke-width="0.16" points="1634.31,-148.86 1629.24,-139.56 1627.4,-149.99 1634.31,-148.86"/>
</g>
<!-- 959 -->
<g id="node32" class="node">
<title>959</title>
<ellipse fill="white" stroke="black" cx="60.43" cy="-118.73" rx="21.43" ry="21.43"/>
<text text-anchor="middle" x="60.43" y="-116.53" font-family="Times New Roman,serif" font-size="9.00">959</text>
</g>
<!-- x&#45;&gt;959 -->
<g id="edge29" class="edge">
<title>x&#45;&gt;959</title>
<path fill="none" stroke="green" stroke-width="0.3" d="M784.99,-273.05C714.68,-273.42 309.71,-273.57 196.43,-228.98 149.19,-210.38 105.49,-169.28 80.96,-143.14"/>
<polygon fill="green" stroke="green" stroke-width="0.3" points="83.33,-140.54 73.98,-135.54 78.17,-145.27 83.33,-140.54"/>
</g>
<!-- 960 -->
<g id="node33" class="node">
<title>960</title>
<ellipse fill="white" stroke="black" cx="1681.43" cy="-204.23" rx="21.43" ry="21.43"/>
<text text-anchor="middle" x="1681.43" y="-202.03" font-family="Times New Roman,serif" font-size="9.00">960</text>
</g>
<!-- x&#45;&gt;960 -->
<g id="edge30" class="edge">
<title>x&#45;&gt;960</title>
<path fill="none" stroke="red" stroke-width="0.27" d="M805.65,-272.78C896.37,-271.01 1562.81,-257.05 1646.43,-228.98 1650.06,-227.76 1653.65,-226.06 1657.09,-224.11"/>
<polygon fill="red" stroke="red" stroke-width="0.27" points="1659.17,-226.94 1665.69,-218.58 1655.38,-221.05 1659.17,-226.94"/>
</g>
<!-- 2186&#45;&gt;959 -->
<g id="edge63" class="edge">
<title>2186&#45;&gt;959</title>
<path fill="none" stroke="red" stroke-width="0.19" d="M63.99,-179.08C63.45,-170.12 62.83,-159.84 62.27,-150.38"/>
<polygon fill="red" stroke="red" stroke-width="0.19" points="65.75,-149.93 61.66,-140.16 58.76,-150.35 65.75,-149.93"/>
</g>
<!-- 931&#45;&gt;output -->
<g id="edge31" class="edge">
<title>931&#45;&gt;output</title>
<path fill="none" stroke="red" stroke-width="0.3" d="M135.21,-103.24C139.75,-99.6 144.99,-96.12 150.43,-93.98 290.63,-38.81 766.5,-31.2 907.04,-30.15"/>
<polygon fill="red" stroke="red" stroke-width="0.3" points="907.36,-33.65 917.33,-30.09 907.31,-26.65 907.36,-33.65"/>
</g>
<!-- 932&#45;&gt;output -->
<g id="edge32" class="edge">
<title>932&#45;&gt;output</title>
<path fill="none" stroke="red" stroke-width="0.1" stroke-dasharray="1,5" d="M195.22,-103.26C199.76,-99.62 205,-96.14 210.43,-93.98 338.96,-42.92 773.26,-32.48 906.94,-30.45"/>
<polygon fill="red" stroke="red" stroke-width="0.1" points="907.18,-33.95 917.13,-30.31 907.08,-26.95 907.18,-33.95"/>
</g>
<!-- 933&#45;&gt;output -->
<g id="edge33" class="edge">
<title>933&#45;&gt;output</title>
<path fill="none" stroke="red" stroke-width="0.25" stroke-dasharray="1,5" d="M255.23,-103.29C259.77,-99.65 265.01,-96.16 270.43,-93.98 387.35,-47.01 780.37,-33.87 906.86,-30.81"/>
<polygon fill="red" stroke="red" stroke-width="0.25" points="907.31,-34.3 917.23,-30.56 907.15,-27.3 907.31,-34.3"/>
</g>
<!-- 934&#45;&gt;output -->
<g id="edge34" class="edge">
<title>934&#45;&gt;output</title>
<path fill="none" stroke="red" stroke-width="0.3" d="M315.24,-103.32C319.78,-99.68 325.02,-96.19 330.43,-93.98 435.92,-51.04 788.69,-35.35 907.21,-31.21"/>
<polygon fill="red" stroke="red" stroke-width="0.3" points="907.41,-34.71 917.29,-30.87 907.17,-27.71 907.41,-34.71"/>
</g>
<!-- 935&#45;&gt;output -->
<g id="edge35" class="edge">
<title>935&#45;&gt;output</title>
<path fill="none" stroke="green" stroke-width="0.3" d="M375.26,-103.36C379.8,-99.72 385.03,-96.22 390.43,-93.98 484.49,-55.09 796.94,-37 907.36,-31.71"/>
<polygon fill="green" stroke="green" stroke-width="0.3" points="907.58,-35.2 917.4,-31.24 907.25,-28.21 907.58,-35.2"/>
</g>
<!-- 936&#45;&gt;output -->
<g id="edge36" class="edge">
<title>936&#45;&gt;output</title>
<path fill="none" stroke="green" stroke-width="0.22" d="M436.64,-104.43C442.27,-100.45 448.84,-96.49 455.43,-93.98 614.94,-33.42 822.24,-28.3 907.36,-29.06"/>
<polygon fill="green" stroke="green" stroke-width="0.22" points="907.31,-32.56 917.36,-29.18 907.4,-25.56 907.31,-32.56"/>
</g>
<!-- 937&#45;&gt;output -->
<g id="edge37" class="edge">
<title>937&#45;&gt;output</title>
<path fill="none" stroke="red" stroke-width="0.3" stroke-dasharray="1,5" d="M509.02,-187.19C491.31,-164.01 464.96,-120.96 488.43,-93.98 542.76,-31.53 806.72,-28.17 907.35,-29.22"/>
<polygon fill="red" stroke="red" stroke-width="0.3" points="907.36,-32.72 917.41,-29.35 907.45,-25.73 907.36,-32.72"/>
</g>
<!-- 2662 -->
<g id="node35" class="node">
<title>2662</title>
<ellipse fill="white" stroke="black" cx="522.43" cy="-118.73" rx="25" ry="25"/>
<text text-anchor="middle" x="522.43" y="-116.53" font-family="Times New Roman,serif" font-size="9.00">2662</text>
</g>
<!-- 937&#45;&gt;2662 -->
<g id="edge64" class="edge">
<title>937&#45;&gt;2662</title>
<path fill="none" stroke="green" stroke-width="0.14" d="M522.43,-182.59C522.43,-173.94 522.43,-163.64 522.43,-153.91"/>
<polygon fill="green" stroke="green" stroke-width="0.14" points="525.93,-153.68 522.43,-143.68 518.93,-153.68 525.93,-153.68"/>
</g>
<!-- 938&#45;&gt;output -->
<g id="edge38" class="edge">
<title>938&#45;&gt;output</title>
<path fill="none" stroke="red" stroke-width="0.3" d="M601.37,-103.62C605.92,-99.99 611.12,-96.42 616.43,-93.98 714.64,-48.87 843.45,-35.54 907.2,-31.62"/>
<polygon fill="red" stroke="red" stroke-width="0.3" points="907.44,-35.11 917.22,-31.05 907.04,-28.12 907.44,-35.11"/>
</g>
<!-- 939&#45;&gt;output -->
<g id="edge39" class="edge">
<title>939&#45;&gt;output</title>
<path fill="none" stroke="red" stroke-width="0.3" d="M661.75,-103.52C666.22,-99.97 671.29,-96.47 676.43,-93.98 753.25,-56.77 853.08,-40.41 907.26,-33.87"/>
<polygon fill="red" stroke="red" stroke-width="0.3" points="907.94,-37.32 917.47,-32.69 907.13,-30.36 907.94,-37.32"/>
</g>
<!-- 940&#45;&gt;output -->
<g id="edge40" class="edge">
<title>940&#45;&gt;output</title>
<path fill="none" stroke="green" stroke-width="0.29" d="M721.86,-103.73C726.33,-100.18 731.37,-96.63 736.43,-93.98 792.69,-64.5 864.69,-46.29 908.1,-37.16"/>
<polygon fill="green" stroke="green" stroke-width="0.29" points="908.87,-40.58 917.96,-35.14 907.46,-33.72 908.87,-40.58"/>
</g>
<!-- 941&#45;&gt;output -->
<g id="edge41" class="edge">
<title>941&#45;&gt;output</title>
<path fill="none" stroke="green" stroke-width="0.18" stroke-dasharray="1,5" d="M782.05,-104.08C786.53,-100.54 791.52,-96.9 796.43,-93.98 832.99,-72.24 878.31,-53.98 909.5,-42.6"/>
<polygon fill="green" stroke="green" stroke-width="0.18" points="910.88,-45.83 919.11,-39.15 908.51,-39.24 910.88,-45.83"/>
</g>
<!-- 942&#45;&gt;output -->
<g id="edge42" class="edge">
<title>942&#45;&gt;output</title>
<path fill="none" stroke="green" stroke-width="0.12" d="M842.51,-104.76C846.98,-101.22 851.86,-97.41 856.43,-93.98 875.37,-79.77 896.97,-64.38 914.27,-52.26"/>
<polygon fill="green" stroke="green" stroke-width="0.12" points="916.69,-54.84 922.88,-46.24 912.68,-49.1 916.69,-54.84"/>
</g>
<!-- 943&#45;&gt;output -->
<g id="edge43" class="edge">
<title>943&#45;&gt;output</title>
<path fill="none" stroke="green" stroke-width="0.3" d="M898,-100.81C905.54,-89.78 915.62,-75.04 924.63,-61.87"/>
<polygon fill="green" stroke="green" stroke-width="0.3" points="927.61,-63.72 930.36,-53.49 921.83,-59.77 927.61,-63.72"/>
</g>
<!-- 944&#45;&gt;output -->
<g id="edge44" class="edge">
<title>944&#45;&gt;output</title>
<path fill="none" stroke="red" stroke-width="0.17" stroke-dasharray="1,5" d="M946.43,-97.38C946.43,-88.74 946.43,-78.37 946.43,-68.38"/>
<polygon fill="red" stroke="red" stroke-width="0.17" points="949.93,-68.21 946.43,-58.21 942.93,-68.21 949.93,-68.21"/>
</g>
<!-- 945&#45;&gt;output -->
<g id="edge45" class="edge">
<title>945&#45;&gt;output</title>
<path fill="none" stroke="green" stroke-width="0.3" stroke-dasharray="1,5" d="M879.07,-189.6C883.54,-186.06 888.53,-182.41 893.43,-179.48 927.93,-158.83 954.37,-177.1 976.43,-143.48 992.59,-118.85 980.94,-85.86 967.73,-61.8"/>
<polygon fill="green" stroke="green" stroke-width="0.3" points="970.7,-59.93 962.65,-53.05 964.65,-63.45 970.7,-59.93"/>
</g>
<!-- 946&#45;&gt;output -->
<g id="edge46" class="edge">
<title>946&#45;&gt;output</title>
<path fill="none" stroke="green" stroke-width="0.29" stroke-dasharray="1,5" d="M939.4,-190.11C943.87,-186.57 948.78,-182.8 953.43,-179.48 977.51,-162.28 995.25,-169.45 1009.43,-143.48 1019.97,-124.17 1017.77,-114.34 1009.43,-93.98 1002.89,-78.01 990.22,-63.88 977.94,-52.99"/>
<polygon fill="green" stroke="green" stroke-width="0.29" points="979.91,-50.07 970,-46.31 975.41,-55.43 979.91,-50.07"/>
</g>
<!-- 947&#45;&gt;output -->
<g id="edge47" class="edge">
<title>947&#45;&gt;output</title>
<path fill="none" stroke="red" stroke-width="0.26" d="M998.11,-188.51C1008.24,-177.25 1020.86,-160.75 1026.43,-143.48 1033.18,-122.54 1035.96,-113.81 1026.43,-93.98 1016.92,-74.19 997.97,-58.6 980.9,-47.77"/>
<polygon fill="red" stroke="red" stroke-width="0.26" points="982.58,-44.7 972.21,-42.54 978.97,-50.69 982.58,-44.7"/>
</g>
<!-- 948&#45;&gt;output -->
<g id="edge48" class="edge">
<title>948&#45;&gt;output</title>
<path fill="none" stroke="green" stroke-width="0.11" stroke-dasharray="1,5" d="M1048.79,-183.32C1053.82,-160.32 1058.54,-122.04 1043.43,-93.98 1030.69,-70.31 1004.92,-53.94 983.15,-43.69"/>
<polygon fill="green" stroke="green" stroke-width="0.11" points="984.36,-40.39 973.8,-39.53 981.52,-46.79 984.36,-40.39"/>
</g>
<!-- 949&#45;&gt;output -->
<g id="edge49" class="edge">
<title>949&#45;&gt;output</title>
<path fill="none" stroke="green" stroke-width="0.3" d="M1100.2,-182.93C1095.52,-159.2 1084.82,-119.88 1062.43,-93.98 1041.45,-69.71 1008.9,-52.89 983.61,-42.61"/>
<polygon fill="green" stroke="green" stroke-width="0.3" points="984.56,-39.22 973.97,-38.86 982.02,-45.75 984.56,-39.22"/>
</g>
<!-- 950&#45;&gt;output -->
<g id="edge50" class="edge">
<title>950&#45;&gt;output</title>
<path fill="none" stroke="red" stroke-width="0.3" stroke-dasharray="1,5" d="M1154.92,-184.67C1143.18,-160.86 1119.97,-119.6 1089.43,-93.98 1058.36,-67.91 1014.96,-50.5 984.14,-40.5"/>
<polygon fill="red" stroke="red" stroke-width="0.3" points="984.79,-37.04 974.2,-37.4 982.7,-43.72 984.79,-37.04"/>
</g>
<!-- 951&#45;&gt;output -->
<g id="edge51" class="edge">
<title>951&#45;&gt;output</title>
<path fill="none" stroke="red" stroke-width="0.3" d="M1211.84,-186.06C1194.98,-162.27 1161.51,-119.38 1123.43,-93.98 1080.2,-65.15 1022.37,-47.44 984.76,-38.17"/>
<polygon fill="red" stroke="red" stroke-width="0.3" points="985.26,-34.69 974.72,-35.77 983.64,-41.5 985.26,-34.69"/>
</g>
<!-- 952&#45;&gt;output -->
<g id="edge52" class="edge">
<title>952&#45;&gt;output</title>
<path fill="none" stroke="green" stroke-width="0.3" stroke-dasharray="1,5" d="M1270.35,-187.43C1249.92,-163.74 1208.12,-119.13 1163.43,-93.98 1105.8,-61.54 1030.1,-44.09 985.04,-35.95"/>
<polygon fill="green" stroke="green" stroke-width="0.3" points="985.54,-32.48 975.09,-34.21 984.33,-39.38 985.54,-32.48"/>
</g>
<!-- 5588 -->
<g id="node34" class="node">
<title>5588</title>
<ellipse fill="white" stroke="black" cx="1314.43" cy="-118.73" rx="25" ry="25"/>
<text text-anchor="middle" x="1314.43" y="-116.53" font-family="Times New Roman,serif" font-size="9.00">5588</text>
</g>
<!-- 952&#45;&gt;5588 -->
<g id="edge66" class="edge">
<title>952&#45;&gt;5588</title>
<path fill="none" stroke="green" stroke-width="0.14" stroke-dasharray="1,5" d="M1290.62,-183.86C1294.16,-174.35 1298.51,-162.63 1302.52,-151.82"/>
<polygon fill="green" stroke="green" stroke-width="0.14" points="1305.87,-152.84 1306.07,-142.24 1299.31,-150.4 1305.87,-152.84"/>
</g>
<!-- 953&#45;&gt;output -->
<g id="edge53" class="edge">
<title>953&#45;&gt;output</title>
<path fill="none" stroke="green" stroke-width="0.3" stroke-dasharray="1,5" d="M1351.39,-184.1C1359.98,-160.07 1369.75,-118.97 1348.43,-93.98 1301.99,-39.56 1077.52,-31.2 985.7,-30.08"/>
<polygon fill="green" stroke="green" stroke-width="0.3" points="985.47,-26.57 975.44,-29.98 985.4,-33.57 985.47,-26.57"/>
</g>
<!-- 954&#45;&gt;output -->
<g id="edge54" class="edge">
<title>954&#45;&gt;output</title>
<path fill="none" stroke="green" stroke-width="0.19" d="M1403.02,-182.84C1401.34,-157.88 1394.51,-116.2 1368.43,-93.98 1311.13,-45.17 1078.98,-33.53 985.61,-30.81"/>
<polygon fill="green" stroke="green" stroke-width="0.19" points="985.54,-27.3 975.45,-30.53 985.35,-34.3 985.54,-27.3"/>
</g>
<!-- 955&#45;&gt;output -->
<g id="edge55" class="edge">
<title>955&#45;&gt;output</title>
<path fill="none" stroke="green" stroke-width="0.3" d="M1457.15,-183.75C1447.93,-158.55 1428.18,-115.34 1395.43,-93.98 1328.04,-50.04 1082.16,-35.48 985.67,-31.39"/>
<polygon fill="green" stroke="green" stroke-width="0.3" points="985.6,-27.88 975.47,-30.97 985.32,-34.88 985.6,-27.88"/>
</g>
<!-- 956&#45;&gt;output -->
<g id="edge56" class="edge">
<title>956&#45;&gt;output</title>
<path fill="none" stroke="green" stroke-width="0.16" d="M1513.64,-184.89C1499.12,-159.72 1469.37,-115.18 1430.43,-93.98 1353.68,-52.2 1086.56,-36.21 985.54,-31.57"/>
<polygon fill="green" stroke="green" stroke-width="0.16" points="985.6,-28.07 975.45,-31.12 985.29,-35.06 985.6,-28.07"/>
</g>
<!-- 957&#45;&gt;output -->
<g id="edge57" class="edge">
<title>957&#45;&gt;output</title>
<path fill="none" stroke="red" stroke-width="0.15" stroke-dasharray="1,5" d="M1571.64,-186.07C1553.4,-161.05 1515.76,-115.24 1471.43,-93.98 1385.3,-52.68 1092.36,-36.24 985.69,-31.54"/>
<polygon fill="red" stroke="red" stroke-width="0.15" points="985.81,-28.04 975.67,-31.11 985.51,-35.03 985.81,-28.04"/>
</g>
<!-- 958&#45;&gt;output -->
<g id="edge58" class="edge">
<title>958&#45;&gt;output</title>
<path fill="none" stroke="red" stroke-width="0.11" stroke-dasharray="1,5" d="M1606.74,-106.61C1598.45,-101.93 1588.25,-96.9 1578.43,-93.98 1466.19,-60.64 1105.33,-38.58 985.51,-32.03"/>
<polygon fill="red" stroke="red" stroke-width="0.11" points="985.51,-28.53 975.34,-31.48 985.13,-35.52 985.51,-28.53"/>
</g>
<!-- 959&#45;&gt;output -->
<g id="edge59" class="edge">
<title>959&#45;&gt;output</title>
<path fill="none" stroke="red" stroke-width="0.19" stroke-dasharray="1,5" d="M75.2,-103.22C79.74,-99.58 84.99,-96.11 90.43,-93.98 242.29,-34.71 759.75,-30.01 907.03,-29.9"/>
<polygon fill="red" stroke="red" stroke-width="0.19" points="907.38,-33.4 917.38,-29.9 907.38,-26.4 907.38,-33.4"/>
</g>
<!-- 960&#45;&gt;output -->
<g id="edge60" class="edge">
<title>960&#45;&gt;output</title>
<path fill="none" stroke="green" stroke-width="0.2" d="M1682.86,-182.73C1683.35,-157.66 1679.93,-115.87 1654.43,-93.98 1603.49,-50.26 1127.7,-34.63 986.04,-30.93"/>
<polygon fill="green" stroke="green" stroke-width="0.2" points="985.75,-27.42 975.66,-30.66 985.57,-34.42 985.75,-27.42"/>
</g>
<!-- 5588&#45;&gt;output -->
<g id="edge67" class="edge">
<title>5588&#45;&gt;output</title>
<path fill="none" stroke="green" stroke-width="0.25" stroke-dasharray="1,5" d="M1294.49,-103.73C1288.58,-100.1 1281.94,-96.5 1275.43,-93.98 1175.41,-55.24 1048.85,-39.11 985.83,-33.12"/>
<polygon fill="green" stroke="green" stroke-width="0.25" points="985.82,-29.6 975.55,-32.18 985.19,-36.58 985.82,-29.6"/>
</g>
<!-- 2662&#45;&gt;output -->
<g id="edge65" class="edge">
<title>2662&#45;&gt;output</title>
<path fill="none" stroke="green" stroke-width="0.19" stroke-dasharray="1,5" d="M541.34,-102.32C546.04,-99.13 551.23,-96.1 556.43,-93.98 677.65,-44.7 834.7,-33.33 906.92,-30.74"/>
<polygon fill="green" stroke="green" stroke-width="0.19" points="907.48,-34.22 917.36,-30.4 907.25,-27.23 907.48,-34.22"/>
</g>
</g>
</svg>
